<svg xmlns="http://www.w3.org/2000/svg" viewBox="0 0 175 175"><path d="M142.1 118.6L142.1 118.6c-0.1-0.3 0.2-0.7 0.3-1.1 0.1 0 0.2 0.1 0.3 0.1 1.7-3.1 3.1-6.3 4.3-9.7 -5 5.1-8.6 11.5-10.2 18.6C138.8 123.9 140.5 121.4 142.1 118.6z"/><path d="M26.9 115.9c-1.3-0.8-2.6-1.6-3.8-2.5 3.6 9 9.1 17 15.9 23.7 0.1-0.9 0.1-1.8 0.1-2.6 0-0.3 0-0.6 0-0.9C34.1 128.4 30 122.6 26.9 115.9z"/><polygon points="125.5 42.8 134.9 42.3 128.7 37.3 "/><path d="M87.5 2.2c-0.6 0-1.3 0-1.9 0 0.1 0.3 0.3 0.6 0.2 0.8 -0.1 0.3-0.6 0.3-1 0.5 -0.1-0.3-0.4-0.8-0.3-1 0.1-0.1 0.2-0.2 0.4-0.3C66.1 2.8 48.8 9.4 35 20.2c0 0.1 0.1 0.2 0.1 0.3 -0.3 0.2-0.5 0.5-0.8 0.7 -0.1-0.1-0.1-0.2-0.2-0.3 -2.1 1.6-4 3.4-5.9 5.2 0.2 0.2 0.4 0.4 0.6 0.6 -0.1 0.1-0.2 0.3-0.3 0.4 -0.2-0.2-0.5-0.4-0.6-0.6 0 0 0 0 0-0.1 -1.6 1.6-3.2 3.3-4.7 5 0.1 0 0.2 0.1 0.3 0.1 -0.2 0.4-0.3 0.7-0.5 1.1 -0.2-0.1-0.5-0.2-0.7-0.3 -1.4 1.7-2.8 3.4-4 5.1 0.1 0.1 0.2 0.1 0.3 0.2 -0.4 0.2-0.6 0.5-0.9 0.7C7.9 52.1 2.1 69.1 2.1 87.4c0 47.1 38.3 85.4 85.4 85.4 29.7 0 55.8-15.2 71.1-38.2 0-0.1-0.1-0.2-0.1-0.3 0-0.2 0.3-0.5 0.7-0.7 8.6-13.3 13.6-29.2 13.6-46.2C172.9 40.5 134.6 2.2 87.5 2.2zM142.5 26.1c0.2 0.2 0.4 0.4 0.7 0.6 -0.1 0.1-0.2 0.3-0.3 0.4 -0.2-0.2-0.5-0.4-0.6-0.6C142.2 26.5 142.4 26.3 142.5 26.1zM96.5 3.4c0.1-0.1 0.4-0.3 0.5-0.3 0.2 0.2 0.4 0.5 0.6 0.8 -0.3 0-0.6 0.1-1 0C96.5 3.9 96.4 3.5 96.5 3.4zM74.6 3.4c-0.1 0.2-0.2 0.4-0.3 0.8 -0.1-0.3-0.1-0.5-0.2-0.6C74.2 3.5 74.4 3.4 74.6 3.4zM68.8 8.6c0 0.3 0.1 0.6 0 0.9 0 0-0.3 0-0.5 0.1 0-0.3-0.1-0.6 0-0.9C68.3 8.6 68.6 8.6 68.8 8.6zM50.8 14.4c0.2 0.4 0.4 0.8 0.6 1.2 -0.4 0.1-0.8 0.4-1 0.3s-0.3-0.6-0.5-1C50.2 14.8 50.5 14.6 50.8 14.4zM10.6 75.6c0.3-0.1 0.8 0.3 1.4 0.7 -0.2-1.5-0.3-3-0.3-4.5 0-5.5 1.1-10.7 3-15.5 0.4-0.9 0.8-1.8 1.2-2.7 6.7-13.5 20.6-22.7 36.6-22.7 13.6 0 25.6 6.6 33.1 16.8 0.3 0.1 1.1 0.9 1 1.1 0 0.1-0.1 0.1-0.1 0.2 4.4 6.5 6.9 14.3 6.9 22.7 0 22.6-18.3 40.9-40.9 40.9 -20.6 0-37.7-15.3-40.5-35.2 -0.6 0.5-1.1 0.8-1.6 0.9 -0.3 0.1-1.2-0.8-1.2-1.1C9.5 76.6 10 75.7 10.6 75.6zM68.6 21.2c-0.2-0.2-0.4-0.5-0.6-0.7 0.1-0.1 0.4-0.3 0.4-0.3 0.2 0.2 0.4 0.5 0.6 0.7C68.9 21 68.7 21.1 68.6 21.2zM69.4 32.3c-0.1 0.1-0.2 0.3-0.3 0.4 -0.2-0.1-0.4-0.1-0.5-0.2s0-0.3 0.1-0.5C68.9 32.1 69.1 32.2 69.4 32.3zM73.7 15.1l0.1-0.5 0.5 0.3L73.7 15.1zM84.8 15.6c-0.2-0.3-0.4-0.6-0.5-0.9 0 0 0.3-0.3 0.4-0.3 0.3 0.1 0.6 0.3 0.8 0.5C85.4 15.2 85.1 15.4 84.8 15.6zM85.8 26c0.1 0.2 0.3 0.4 0.3 0.5 -0.2 0.2-0.5 0.4-0.8 0.6 -0.1-0.2-0.2-0.3-0.3-0.5C85.3 26.4 85.5 26.2 85.8 26zM90.9 30.7c0.4 0.1 0.8 0.5 1.4 1 -0.7 0.4-1.1 0.7-1.5 1 -0.3-0.5-0.6-0.9-0.7-1.4C90 31.1 90.7 30.6 90.9 30.7zM90.2 20.7c0.1-0.5 0.6-1 1.1-1.2 0.3-0.1 0.8 0.5 1.4 1 -0.6 0.6-1 1.2-1.5 1.3C90.9 21.8 90.1 21 90.2 20.7zM92 54.6c0.1 0.5-0.2 1-0.4 1.8 -0.7-0.6-1.4-0.9-1.4-1.2 0-0.5 0.6-0.9 1-1.3C91.2 53.9 92 54.3 92 54.6zM96.6 26.2c0.2 0.1 0.3 0.2 0.5 0.3 -0.2 0.3-0.4 0.5-0.7 0.8 0 0-0.3-0.2-0.5-0.3C96.2 26.7 96.4 26.5 96.6 26.2zM96.2 15.6c0.2-0.5 0.6-1 0.9-1.3 0.1-0.1 0.6 0.4 1.1 0.8 -0.4 0.4-0.7 0.9-1.2 1.2C96.9 16.3 96.2 15.7 96.2 15.6zM96.4 48.8c0.3-0.1 0.7 0.2 1.1 0.4 -0.2 0.3-0.3 0.7-0.5 1 -0.4-0.2-0.7-0.3-1.1-0.5C96.1 49.4 96.2 48.8 96.4 48.8zM97 128.9c0.1-0.2 0.1-0.4 0.2-0.5 0.1-0.1 0.3 0.1 0.4 0.1 -0.1 0.2-0.1 0.3-0.2 0.5C97.2 129.1 97.1 128.9 97 128.9zM97.1 152.1c-0.1 0.1-0.3 0.1-0.4 0.1 0-0.1-0.1-0.4-0.1-0.4 0.1-0.1 0.3-0.1 0.4-0.1C97.1 151.9 97.2 152.1 97.1 152.1zM97 106.8l0.3-0.5 0.2 0.5H97zM97.2 61.7c-0.3-0.2-0.9-0.2-1-0.5s0.2-0.8 0.4-1c0.2-0.1 0.7 0.2 1 0.4C97.5 61 97.4 61.4 97.2 61.7zM96.4 71.7c0.3-0.1 0.7 0.2 1 0.4 -0.2 0.3-0.2 0.9-0.5 0.9 -0.3 0.1-0.7-0.2-1-0.4C96 72.2 96.1 71.8 96.4 71.7zM96.5 120.1v13.4h-5.7v-13.4H96.5zM96.5 136.4v13.5h-5.7v-13.5H96.5zM92.7 113.1l-4.3-1.5c-0.6-0.2-1.2-0.2-1.8 0l-4.3 1.6c-1.5 0.6-3.3-0.4-2.6-1.4l6-9c0.6-0.9 2.7-0.9 3.4 0l6.2 8.9C96 112.7 94.3 113.7 92.7 113.1zM79.7 133.4v-13.4h5.7v13.4H79.7zM85.4 136.4v13.5h-5.7v-13.5H85.4zM68.6 133.4v-13.4h5.7v13.4H68.6zM74.3 136.4v13.5h-5.7v-13.5H74.3zM57.8 133.4v-10.6h5.1v10.6H57.8zM62.9 136.4v10.7h-5.1v-10.7H62.9zM5.5 71.1c0.2 0.2 0.4 0.5 0.6 0.8 -0.3 0.1-0.7 0.2-1 0.4 0-0.3-0.1-0.7-0.1-1C5 71.2 5.4 71.1 5.5 71.1zM6.2 95.4c-0.1 0.2-0.6 0.3-0.9 0.4 -0.1-0.3-0.4-0.7-0.3-1 0.1-0.2 0.6-0.3 0.9-0.4C6.1 94.8 6.3 95.2 6.2 95.4zM148.6 146.8c-0.2-0.3-0.4-0.5-0.6-0.8 0-0.1 0.3-0.4 0.4-0.4 0.3 0.1 0.6 0.3 1 0.6C149.1 146.4 148.9 146.6 148.6 146.8zM160.1 126.4c-0.7-0.6-1.8-1.2-1.9-1.9 -0.2-1.3 0.6-2.4 2.1-2.4 0.6 0 1.2 0.7 2.2 1.4C161.5 124.8 160.8 125.6 160.1 126.4zM165.6 107.2c-0.4-0.1-0.7-0.3-1.1-0.4 0.2-0.3 0.3-0.9 0.5-0.9 0.3-0.1 0.7 0.2 1.1 0.3C165.9 106.6 165.7 106.9 165.6 107.2zM87.5 166.8c-43.7 0-79.2-35.5-79.2-79.2 0-0.6 0-1.1 0-1.7C13 100.7 25 112.3 40 116.5c2.6 5.5 4 11.6 4 18.1 0 2.4-0.2 4.7-0.6 6.9 -0.6 3.4 0.9 6.8 3.7 8.6 11.6 7.5 25.4 11.9 40.3 11.9 14.8 0 28.7-4.4 40.3-11.9 2.8-1.8 4.2-5.2 3.7-8.5 -0.1 0.1-0.2 0.1-0.3 0.1 -0.5-0.1-0.9-0.5-1.7-0.9 0.8-0.5 1.2-1 1.7-1 0 0 0 0 0.1 0 -0.2-1.7-0.3-3.5-0.3-5.2 0-1.5 0.1-3 0.2-4.5 -0.2 0.1-0.3 0.1-0.5 0.1 -0.4 0-0.7-0.7-1-1.1 0.4-0.3 0.9-0.9 1.3-0.9 0.1 0 0.3 0.1 0.4 0.2 0.8-5.4 2.6-10.5 5.3-15.1l0 0c-0.3-0.4-0.8-0.9-0.8-1.3 0-0.3 0.7-0.5 1.1-0.8 0.1 0.3 0.3 0.5 0.4 0.8 2.8-4.4 6.3-8.2 10.4-11.3 0-0.1-0.1-0.2-0.1-0.2 0.3-0.2 0.6-0.4 0.8-0.6 0 0.1 0.1 0.1 0.1 0.2 1.8-1.3 3.7-2.5 5.7-3.5 -0.6-0.5-1-0.8-1.4-1.1 0.3-0.4 0.6-0.9 1.1-1.1 0.2-0.1 0.9 0.3 0.9 0.5 0 0.5-0.2 0.9-0.4 1.6 0.7-0.3 1.4-0.7 2.1-1 3.1-1.3 5.2-4.3 5.2-7.7 0 0 0 0 0-0.1 0-21.9-9.5-41.6-24.5-55.2 0 0.1-0.1 0.1-0.1 0.2 -0.1-0.1-0.3-0.2-0.4-0.3 0.1-0.1 0.1-0.1 0.2-0.2 -1.1-1-2.2-1.9-3.4-2.9l-2.7 4.6 9.3 8.7 3.2 3 -4.2-0.2 -12.6-0.8c-0.1 0.3-0.3 0.6-0.5 1l7.3 15.3 -9.4-16.1 -9.8 13 8.9-15.9 -0.1 0.1 3.1-6.9 -3.9-3.2 3-3.4 2.7 2.5 2-4.5c-2.3-1.6-4.6-3-7-4.3l-17.9 11.4 11 8.1 1.2 0.8 -1.1 0.7L97.4 54.6l16.3-12.1 -12.8-7.6 -2-1.2 2-1.6h0.1c0-0.2 0.2-0.6 0.4-0.9 0.1 0.1 0.3 0.1 0.5 0.2l15-12.1c-9-3.9-18.9-6-29.3-6 -15.3 0-29.4 4.6-41.2 12.5 -4.3 0.6-8.3 1.7-12.1 3.4 3.1-2.9 6.5-5.5 10.1-7.8 -0.1-0.1-0.2-0.3-0.1-0.3 0.3-0.6 0.8-1.4 1.4-1.6 0.2-0.1 0.5 0.2 0.9 0.5 12-7.3 26.1-11.6 41.1-11.6 1.4 0 2.8 0 4.1 0.1 0.1 0 0.2-0.1 0.3-0.1 0 0.1 0 0.1 0.1 0.2 3.3 0.2 6.5 0.6 9.6 1.1V9.5c0.1-0.5 0.4-1 0.7-1.8 0.5 0.6 1.2 1 1.1 1.3 0 0.3-0.3 0.5-0.6 0.7 36.4 7.2 63.9 39.3 63.9 77.7C166.7 131.2 131.2 166.8 87.5 166.8zM103.3 55.1c-0.3 0.2-0.6 0.3-0.9 0.4 0-0.3-0.1-0.7-0.1-1 0.3 0 0.6 0 0.9 0.1C103.3 54.6 103.4 55.1 103.3 55.1zM103.4 65.4c0.2 0.1 0.3 0.6 0.4 1 -0.3 0.1-0.8 0.4-1 0.3 -0.3-0.2-0.3-0.6-0.5-1C102.7 65.7 103.2 65.4 103.4 65.4zM113.2 64.2c8.4 0 15.3 6.8 15.3 15.3 0 3.2-1 6.1-2.6 8.6 0.5 0.2 0.9 0.9 1.5 1.6 -0.9 0.5-1.5 1-1.8 0.9 -0.4-0.2-0.7-0.5-1.1-0.9 -2.8 3.1-6.8 5.1-11.4 5.1 -8.4 0-15.3-6.8-15.3-15.3S104.8 64.2 113.2 64.2zM108.5 60.2c0.1 0.3 0.5 0.7 0.4 1s-0.6 0.4-0.9 0.5c-0.2-0.3-0.5-0.5-0.7-0.8C107.7 60.7 108.1 60.4 108.5 60.2zM107.7 49.3c0.3 0 0.6 0 0.9 0.1 0.1 0 0.1 0.5 0.1 0.5 -0.3 0.1-0.6 0.2-0.9 0.3C107.8 50 107.7 49.7 107.7 49.3zM118.9 61.6c0-0.6 0.8-1.5 1.3-1.6s1.5 0.7 1.6 1.2 -0.6 1.3-1.2 2.3C119.8 62.6 118.9 62.1 118.9 61.6zM125.1 66.2c0-0.1 0.3-0.4 0.4-0.4 0.3 0.1 0.6 0.3 0.8 0.5 -0.2 0.2-0.5 0.5-0.7 0.7C125.5 66.8 125.3 66.4 125.1 66.2zM125 122.4c0.6 0.4 1.8 0.9 1.8 1.3 0 0.9-0.6 1.8-1.2 3.2 -1-1-2-1.6-1.9-2.1C123.7 123.9 124.5 123.2 125 122.4zM124.8 112.2c0.2-0.3 0.4-0.6 0.5-0.8 0.2 0.3 0.5 0.5 0.6 0.8 0 0.1-0.2 0.4-0.3 0.4C125.4 112.6 125.1 112.4 124.8 112.2zM125.8 103.8c-0.9-0.9-1.9-1.6-1.8-2 0.3-0.8 0.9-1.7 1.7-2.1 0.3-0.2 1.8 0.9 1.7 1.3C127.3 101.8 126.6 102.4 125.8 103.8zM113.3 136.4h5.1v10.7h-5.1V136.4zM113.1 111.9c0-0.4 0.5-0.9 0.8-1.3 0.4 0.4 1.1 0.7 1.2 1.1 0.1 0.4-0.4 0.9-0.8 1.6C113.8 112.7 113.2 112.2 113.1 111.9zM113.5 134.7c0.4-0.2 0.8-0.4 1.2-0.7 0.1 0.3 0.4 0.7 0.3 1 -0.1 0.3-0.6 0.3-0.9 0.5C113.9 135.2 113.7 134.9 113.5 134.7zM113.3 133.4v-10.6h0.7c0.1-0.1 0.2-0.3 0.4-0.4 0 0 0.3 0.2 0.5 0.4h3.5v5.4c0.3-0.4 0.7-0.8 1.1-1.3 0.7 0.8 1.5 1.3 1.5 1.9 0 0.6-0.7 1.2-1 1.9 -0.5-0.4-1.1-0.8-1.6-1.2v3.9L113.3 133.4 113.3 133.4zM119.9 116.7c0.4 0.4 1.1 0.7 1.1 1.1 0 0.4-0.5 0.9-0.9 1.5 -0.6-0.4-1-0.7-1.5-1.1C119 117.7 119.5 117.2 119.9 116.7zM118.7 95.2c0.2-0.6 0.9-1 1.4-1.4 0.3 0.4 0.9 0.9 0.9 1.3 0 0.4-0.6 0.9-1.5 2C119.1 96.2 118.5 95.6 118.7 95.2zM119.1 140.4c0-0.4 0.7-0.8 1-1.3 0.4 0.4 0.8 0.7 1.4 1.3 -0.6 0.5-1 1.1-1.4 1.1C119.7 141.4 119 140.8 119.1 140.4zM119.6 152.2c-0.1 0.2-0.1 0.4-0.3 0.4 -0.1 0.1-0.3-0.1-0.5-0.1 0-0.2 0-0.3 0-0.5C119.1 152.2 119.4 152.2 119.6 152.2zM107.6 136.4v13.5h-5.7v-13.5H107.6zM102.2 135.4c0.2-0.3 0.3-0.9 0.5-1 0.3-0.1 0.7 0.2 1 0.4 -0.2 0.3-0.2 0.9-0.5 1C102.9 135.8 102.5 135.4 102.2 135.4zM101.9 133.4v-13.4h5.7v13.4H101.9zM102.8 112.6l0.5-0.2v0.5L102.8 112.6zM107.3 94.8c0.4-0.1 0.8-0.4 1-0.3 0.2 0.1 0.3 0.6 0.4 0.9 -0.3 0.1-0.7 0.2-1 0.3C107.6 95.4 107.4 95.1 107.3 94.8zM131 95.2c-0.3-0.2-0.5-0.4-0.8-0.7 0.4-0.3 0.8-0.6 1.2-0.9 0.2 0.3 0.5 0.7 0.5 1C131.8 94.9 131.3 95.1 131 95.2zM131.7 106.4c-0.2 0.3-0.4 0.5-0.6 0.8 -0.2-0.2-0.4-0.5-0.6-0.7 0.3-0.2 0.6-0.4 0.9-0.5C131.4 106.1 131.7 106.4 131.7 106.4zM131.4 116.2c0.3-0.1 1.2 0.7 1.2 1.1 0 0.6-0.5 1.3-1 2.4 -0.9-1-1.4-1.6-1.9-2.2C130.2 117.2 130.7 116.4 131.4 116.2zM131.4 73.2c-0.4 0-0.8-0.7-1.1-1 0.4-0.4 0.8-1 1.2-1.1s0.9 0.6 1.5 1C132.3 72.6 131.8 73.2 131.4 73.2zM130.8 81.8c0.6 0.4 1.3 1 1.3 1.6 0 0.5-0.9 1-1.9 2 -0.4-1.3-0.8-2-0.7-2.6C129.6 82.2 130.6 81.6 130.8 81.8zM137.5 65.8c0.2 0.3 0.5 0.7 0.5 1 0 0.2-0.5 0.4-0.8 0.6 -0.3-0.2-0.5-0.4-0.8-0.7C136.7 66.2 137.1 66.1 137.5 65.8zM136.4 55.1l0.3-0.4 0.2 0.5L136.4 55.1zM138 77.4c0.1 0.5-0.1 1-0.3 1.6 -0.6-0.2-1-0.3-1.4-0.4 0.2-0.5 0.3-1.1 0.6-1.5C137 77.1 138 77.4 138 77.4zM136.6 88.9c0.5 0.2 0.9 0.6 1.4 0.9 -0.3 0.3-0.5 0.6-1 1.1 -0.4-0.4-0.8-0.7-1.1-1.1C135.9 89.6 136.5 88.8 136.6 88.9zM136.8 98.9c0.4 0.1 0.7 0.8 0.8 1.3 0 0.2-0.6 0.7-0.8 0.7 -0.5-0.2-0.9-0.6-1.6-1.1C135.9 99.4 136.4 98.9 136.8 98.9zM142.5 61.7c-0.3-0.4-0.5-0.8-0.8-1.2 0.3-0.1 0.7-0.4 1-0.3 0.2 0.1 0.4 0.5 0.5 0.8C142.9 61.3 142.7 61.5 142.5 61.7zM144 72.6c-0.5 0.4-0.8 0.7-1.1 1 -0.3-0.4-0.7-0.9-1-1.4 0-0.1 0.7-0.7 0.9-0.7C143.2 71.7 143.6 72.2 144 72.6zM142.1 82.7c0.5 0 1 0.2 3.3 0.8 -1.7 0.6-2.3 1-2.8 0.9 -0.4-0.1-0.8-0.6-1.2-0.9C141.6 83.2 141.9 82.7 142.1 82.7zM143.5 96.2c-0.3-0.2-0.7-0.3-1-0.5 0.1-0.4 0.3-0.7 0.4-1.1 0.3 0.2 0.9 0.3 1 0.5C144 95.4 143.6 95.8 143.5 96.2zM148.1 66.9c-0.4-0.3-0.8-0.8-1.1-1.2 0.5-0.4 0.8-0.6 1.1-0.8 0.3 0.4 0.7 0.8 0.8 1.3C149 66.4 148.2 66.9 148.1 66.9zM149.8 78.4c-0.1 0.4-1 0.8-2.2 1.6 -0.2-1.3-0.5-2-0.3-2.6 0.1-0.4 1.2-0.8 1.4-0.7C149.3 76.9 149.9 77.8 149.8 78.4zM147.7 87.9c0.4-0.1 0.8 0.5 1.5 1 -0.6 0.5-1 1.1-1.5 1.1 -0.4 0-0.8-0.7-1.1-1C146.9 88.7 147.3 87.9 147.7 87.9zM159.4 77.7c0.3 0 0.7 0 1 0.1 0.1 0 0.2 0.5 0.1 0.5 -0.3 0.1-0.6 0.2-1 0.3C159.5 78.2 159.5 77.9 159.4 77.7zM132.4 49.5c-0.1 0.3-0.6 0.5-0.8 0.7 -0.3-0.3-0.6-0.5-0.9-0.8 0.4-0.3 0.8-0.6 1.2-0.9C132.1 48.8 132.4 49.2 132.4 49.5zM119.7 27.5c-0.5-0.7-0.8-1.1-1.1-1.6 0.5-0.3 0.9-0.7 1.4-0.8 0.2 0 0.8 0.6 0.7 0.8C120.6 26.4 120.1 26.8 119.7 27.5zM120.8 38.1c-0.5 0.3-0.9 0.6-1.4 0.7 -0.2 0-0.7-0.8-0.6-0.9 0.3-0.4 0.8-0.7 1.3-1.1C120.3 37.2 120.5 37.6 120.8 38.1zM114.5 32.6l-0.5 0.2 0.1-0.5L114.5 32.6zM112.7 20c0.5-0.3 1-0.4 1.5-0.6 0.1 0.4 0.4 0.9 0.3 1.1 -0.4 0.4-0.9 0.6-1.4 0.9C112.9 20.7 112.6 20 112.7 20zM149.2 31.7l0.4 0.3c-0.2 0.3-0.4 0.5-0.6 0.8 -0.1-0.1-0.3-0.2-0.4-0.3C148.7 32.2 148.9 31.9 149.2 31.7z"/><path d="M36.2 120.2c-1-0.4-2.1-0.7-3.1-1.2 1.5 2.6 3.2 5.1 5 7.4C37.7 124.2 37 122.2 36.2 120.2z"/><path d="M158.6 100.6c-0.1-0.1-0.3-0.2-0.7-0.2 -0.1 0-0.3 0-0.5 0.1s-0.5 0.2-0.7 0.4c-0.3 1.8-0.8 3.6-1.2 5.3 0.1 0 0.1 0.1 0.2 0.1 -0.1 0.1-0.2 0.1-0.3 0.1 -3.4 12.5-10.2 23.5-19.3 32.2 0 0.3 0 0.6 0.1 0.9 0.1 0.6 0.5 0.8 0.7 0.8 0.1 0.1 0.7 0.2 1.1-0.2 6.5-6.3 11.7-13.5 15.4-21.5 -0.2-0.2-0.4-0.5-0.6-0.8 -0.1-0.1 0.5-0.8 0.7-0.8s0.3 0.1 0.5 0.1c2.2-4.9 3.8-10.1 4.9-15.5l0 0C159.1 100.9 158.7 100.7 158.6 100.6z"/><path d="M18 109.4c3.6 11.6 10.1 22 19 30.6 0.4 0.4 1 0.3 1.1 0.2 0.2-0.1 0.6-0.3 0.7-0.8 0-0.3 0.1-0.6 0.1-0.9 -7.6-7.3-13.6-16.2-17.4-26.2C20.3 111.4 19.1 110.4 18 109.4z"/><path d="M146.9 112.4c0.2-0.6 0.8-1 1.3-1.6 0.2 0.2 0.4 0.5 0.6 0.7 0.9-2.4 1.8-4.9 2.4-7.4 -1 0.7-1.9 1.5-2.8 2.3 -2.5 8.2-6.7 15.6-12.1 22.1 -0.2 1.2-0.3 2.4-0.4 3.6 5-5.4 9-11.6 12-18.5C147.5 113.2 146.9 112.7 146.9 112.4z"/><path d="M52 107.2c19.6 0 35.5-15.9 35.5-35.5 0-3.8-0.6-7.5-1.7-10.9 -0.3 0.2-0.5 0.4-0.7 0.4 -0.4 0-0.7-0.6-1-1 -0.1-0.1 0.5-0.8 0.7-0.7 0.2 0 0.4 0.1 0.6 0.2 -5-13.6-18-23.3-33.3-23.3 -19.6 0-35.5 15.9-35.5 35.5C16.5 91.4 32.4 107.2 52 107.2zM85.6 71.7c0.2 0.2 0.4 0.5 0.6 0.7 0 0.1-0.2 0.4-0.3 0.4 -0.3-0.1-0.6-0.2-0.9-0.4C85.2 72.1 85.4 71.9 85.6 71.7zM28.4 95.4l0.2-0.5 0.2 0.5H28.4zM45.2 101.7c-0.1 0.1-0.9-0.6-0.9-0.6 0.2-0.5 0.6-1 0.9-1.4 0.3 0.2 0.6 0.5 1.1 0.9C46 100.9 45.7 101.4 45.2 101.7zM79.8 54.2c0.2-0.1 0.6 0.2 0.9 0.4 -0.2 0.3-0.3 0.6-0.5 1 -0.3-0.1-0.6-0.3-1-0.4C79.5 54.8 79.5 54.4 79.8 54.2zM74.2 48c0.1 0 0.7 0.6 0.7 0.8 -0.1 0.5-0.5 0.8-1 1.5 -0.5-0.7-0.8-1.1-1.1-1.6C73.3 48.5 73.7 48.1 74.2 48zM68.1 42.9c0 0.3-0.1 0.6-0.1 0.9 -0.1-0.2-0.2-0.3-0.3-0.5C67.8 43.2 67.9 43.1 68.1 42.9zM44.8 44.3c-0.2-0.3-0.3-0.5-0.2-0.7 0.2-0.4 0.9-0.6 1.4-0.7 0.2 0 0.7 0.7 0.6 0.9 0 0 0 0.1-0.1 0.1 1.7-0.3 3.5-0.5 5.4-0.5 13.7 0 25.1 9.7 27.9 22.6 0.1-0.1 0.1-0.1 0.2-0.1 0.3 0.1 0.6 0.3 0.9 0.5 -0.2 0.2-0.4 0.4-0.7 0.6 -0.1-0.1-0.2-0.2-0.2-0.3 0.3 1.7 0.5 3.4 0.5 5.1 0 15.7-12.7 28.5-28.5 28.5 -15.7 0-28.5-12.7-28.5-28.5C23.5 58.6 32.6 47.5 44.8 44.3z"/><path d="M136 136.1c0 0.4 0 0.8 0 1.1 0.2-0.2 0.4-0.4 0.6-0.6C136.4 136.4 136.2 136.2 136 136.1z"/><path d="M136.4 133.9c0.6 0 1.1 0.4 2 0.8 7.2-7.8 12.7-17.2 15.7-27.7 -0.1 0-0.2 0.1-0.4 0.1s-0.7-0.5-0.7-0.8 0.5-0.9 0.7-0.8c0.2 0 0.5 0.1 0.8 0.2 0.4-1.4 0.7-2.8 1-4.2 -1 0.6-2 1.2-3 1.8 -2.8 11.6-8.6 22-16.6 30.4 0 0.2 0 0.3 0 0.5C136.1 133.9 136.3 133.9 136.4 133.9z"/><path d="M52 97.2c14.1 0 25.5-11.4 25.5-25.5S66.1 46.3 52 46.3 26.5 57.6 26.5 71.8 37.9 97.2 52 97.2zM74.4 60.9l0.1 0.4h-0.4L74.4 60.9zM73.3 71.6c0.3-0.1 0.7 0.2 1.1 0.4 -0.2 0.3-0.3 0.7-0.5 1 -0.4-0.2-0.7-0.3-1.1-0.5C73 72.2 73.1 71.6 73.3 71.6zM40 84.9c-0.7-0.7-1.1-1.1-1.4-1.5 -0.1-0.1 0.5-0.7 0.8-0.8s1.1 0.2 1.1 0.3C40.4 83.4 40.2 83.9 40 84.9zM51.1 95.2c0-0.2 0-0.4 0.1-0.5s0.3 0 0.5-0.1c0.1 0.1 0.1 0.3 0.2 0.4C51.6 95.2 51.4 95.2 51.1 95.2zM68.3 55.2l0.5 0.3 -0.5 0.2V55.2zM62.9 72.1c0 0.2 0 0.4 0.1 0.5 -0.3 0-0.6 0.1-0.9 0.1 0 0 0-0.3-0.1-0.5C62.3 72.2 62.6 72.2 62.9 72.1zM61.6 79.1c1.3 0 2.4 1.1 2.4 2.4s-1.1 2.4-2.4 2.4 -2.4-1.1-2.4-2.4S60.3 79.1 61.6 79.1zM56.5 65.4L56.5 65.4c0.1 0 0.2 0.1 0.2 0.2 1.8 1.4 3 3.6 3 6.1 0 4.3-3.5 7.8-7.8 7.8s-7.8-3.5-7.8-7.8 3.5-7.8 7.8-7.8C53.7 64.1 55.2 64.6 56.5 65.4zM51.3 48.3c0.2 0.2 0.4 0.3 0.6 0.5 -0.1 0.1-0.3 0.2-0.4 0.4 -0.1-0.1-0.2-0.3-0.3-0.4C51.2 48.6 51.3 48.5 51.3 48.3zM51.1 60.3c0 0.2 0.1 0.3 0.1 0.5 -0.2-0.1-0.4-0.1-0.8-0.3C50.8 60.4 50.9 60.3 51.1 60.3zM40.4 55.3c4.5-3.1 8.3-3.3 8.3-3.3v8.2c0 0-1.6 0.1-3.8 1.8 -2.5 1.8-3.3 3.6-3.3 3.6L34 62.8C34 62.7 35.6 58.7 40.4 55.3zM32.2 67.6c0.2-1.8 1.1-3.1 1.1-3.1l7.4 2.9c0 0-0.4 0.7-0.7 1.8 -0.2 1-0.2 1.7-0.2 1.7h-8C31.9 70.9 31.9 69.8 32.2 67.6z"/><path d="M38.6 128.6c-2.6-3.1-5-6.5-7-10.1 -1.1-0.5-2.1-1-3.1-1.5 2.8 5.6 6.3 10.7 10.5 15.3C38.9 130.9 38.8 129.7 38.6 128.6z"/></svg>