<svg id="Layer_1" xmlns="http://www.w3.org/2000/svg" xmlns:xlink="http://www.w3.org/1999/xlink" viewBox="0 0 25 25"><style>.st0{clip-path:url(#SVGID_2_);} .st1{clip-path:url(#SVGID_4_);} .st2{clip-path:url(#SVGID_6_);} .st3{clip-path:url(#SVGID_8_);fill:none;stroke:#000000;stroke-width:1.3175;stroke-miterlimit:10;}</style><defs><path id="SVGID_1_" d="M13.4 9.6c.5-.3.9-.4 1.3-.3.4.1.6.4.6.8s-.1.8-.3 1.4c-.9 1.6-1.5 2.5-1.9 2.5-.2 0-.3-.2-.5-.6s-.4-1.1-.6-2.1c-.1-.3-.1-.7-.2-1.2s-.2-1-.3-1.4c-.1-.4-.2-.8-.3-1.1-.1-.4-.3-.7-.6-.8-.3-.2-.6-.2-.9-.1-.5.1-1.1.4-1.8.9s-1.2 1-1.7 1.5c-.4.5-.6.7-.6.7l.6.7s.1 0 .1-.1c0 0 .1-.1.3-.2.2-.1.3-.2.4-.2.1-.1.3-.1.4-.1s.2 0 .3.1c.1.2.5 1.3 1.2 3.3s1 3.3 1.2 3.6c.2.3.4.6.7.9.3.3.6.4 1 .6.4.1.8 0 1.2-.2.4-.3.9-.7 1.4-1.2.6-.5 1.2-1.1 1.9-1.9.7-.8 1.3-1.7 1.9-2.7s.9-2 1.1-3c.2-1.4-.1-2.3-1.1-2.7-.9-.4-1.8-.2-2.8.4-1.2.5-1.8 1.4-2 2.5z"/></defs><clipPath id="SVGID_2_"><use xlink:href="#SVGID_1_" overflow="visible"/></clipPath><g class="st0"><defs><path id="SVGID_3_" d="M-353.5-2896.1h674.6V133.5h-674.6z"/></defs><clipPath id="SVGID_4_"><use xlink:href="#SVGID_3_" overflow="visible"/></clipPath><path class="st1" d="M2.2 3.1h20.3v18.6H2.2z"/></g><g class="st0"><defs><path id="SVGID_5_" d="M1.6.5h23.7v23.7H1.6z"/></defs><clipPath id="SVGID_6_"><use xlink:href="#SVGID_5_" overflow="visible"/></clipPath><g class="st2"><defs><path id="SVGID_7_" d="M-353.5-2896.1h674.6V133.5h-674.6z"/></defs><clipPath id="SVGID_8_"><use xlink:href="#SVGID_7_" overflow="visible"/></clipPath><path class="st3" d="M1.6.5h23.7v23.7H1.6z"/></g></g></svg>