<svg id="Layer_1" xmlns="http://www.w3.org/2000/svg" xmlns:xlink="http://www.w3.org/1999/xlink" viewBox="0 0 25 25"><style>.st0{clip-path:url(#SVGID_2_);} .st1{clip-path:url(#SVGID_4_);} .st2{clip-path:url(#SVGID_6_);} .st3{clip-path:url(#SVGID_8_);fill:none;stroke:#000000;stroke-width:1.3175;stroke-miterlimit:10;}</style><defs><path id="SVGID_1_" d="M17.9 9.7h-2.7V7h2.7v2.7zm0 8.1H7v-6.3h1.2c-.1.3-.1.6-.1.9 0 1.2.4 2.2 1.3 3.1.8.8 1.9 1.3 3.1 1.3s2.2-.4 3.1-1.3c.8-.8 1.3-1.9 1.3-3.1 0-.3 0-.6-.1-.9H18v6.3h-.1zM15 12.4c0 .7-.2 1.3-.7 1.8s-1.1.7-1.8.7-1.3-.2-1.8-.7-.7-1.1-.7-1.8.2-1.3.7-1.8 1.1-.7 1.8-.7 1.3.2 1.8.7c.4.5.7 1.1.7 1.8zm4.1-7.2H5.9c-.2 0-.3.1-.5.2-.1.1-.2.3-.2.5v13.2c0 .2.1.3.2.5s.3.2.5.2h13.2c.2 0 .3-.1.5-.2.1-.1.2-.3.2-.5V5.8c0-.2-.1-.3-.2-.5-.2-.1-.4-.1-.5-.1z"/></defs><clipPath id="SVGID_2_"><use xlink:href="#SVGID_1_" overflow="visible"/></clipPath><g class="st0"><defs><path id="SVGID_3_" d="M-325.5-2896h674.6V133.6h-674.6z"/></defs><clipPath id="SVGID_4_"><use xlink:href="#SVGID_3_" overflow="visible"/></clipPath><path class="st1" d="M1.9 1.9H23V23H1.9z"/></g><g class="st0"><defs><path id="SVGID_5_" d="M.6.6h23.7v23.7H.6z"/></defs><clipPath id="SVGID_6_"><use xlink:href="#SVGID_5_" overflow="visible"/></clipPath><g class="st2"><defs><path id="SVGID_7_" d="M-325.5-2896h674.6V133.6h-674.6z"/></defs><clipPath id="SVGID_8_"><use xlink:href="#SVGID_7_" overflow="visible"/></clipPath><path class="st3" d="M.6.6h23.7v23.7H.6z"/></g></g></svg>