<svg id="Layer_1" xmlns="http://www.w3.org/2000/svg" xmlns:xlink="http://www.w3.org/1999/xlink" viewBox="0 0 25 25"><style>.st0{clip-path:url(#SVGID_2_);} .st1{clip-path:url(#SVGID_4_);} .st2{clip-path:url(#SVGID_6_);} .st3{clip-path:url(#SVGID_8_);fill:none;stroke:#000000;stroke-width:1.3175;stroke-miterlimit:10;}</style><defs><path id="SVGID_1_" d="M10.4 20.3h2.9v-7.8H16l.3-2.7h-2.9V8.5c0-.4.1-.7.2-.9.1-.2.4-.2.9-.2h1.9V4.7h-2.7c-1.2 0-2.1.3-2.5.9-.4.6-.7 1.5-.7 2.7v1.6h-2v2.7h2v7.7h-.1z"/></defs><clipPath id="SVGID_2_"><use xlink:href="#SVGID_1_" overflow="visible"/></clipPath><g class="st0"><defs><path id="SVGID_3_" d="M-295.8-2896.1h674.6V133.5h-674.6z"/></defs><clipPath id="SVGID_4_"><use xlink:href="#SVGID_3_" overflow="visible"/></clipPath><path class="st1" d="M5.2 1.3h14.4v22.3H5.2z"/></g><g class="st0"><defs><path id="SVGID_5_" d="M.7.5h23.7v23.7H.7z"/></defs><clipPath id="SVGID_6_"><use xlink:href="#SVGID_5_" overflow="visible"/></clipPath><g class="st2"><defs><path id="SVGID_7_" d="M-295.8-2896.1h674.6V133.5h-674.6z"/></defs><clipPath id="SVGID_8_"><use xlink:href="#SVGID_7_" overflow="visible"/></clipPath><path class="st3" d="M.7.5h23.7v23.7H.7z"/></g></g></svg>