<svg id="Layer_1" xmlns="http://www.w3.org/2000/svg" xmlns:xlink="http://www.w3.org/1999/xlink" viewBox="0 0 25 25"><style>.st0{clip-path:url(#SVGID_2_);}</style><defs><path id="SVGID_1_" d="M.6.6h23.7v23.7H.6z"/></defs><clipPath id="SVGID_2_"><use xlink:href="#SVGID_1_" overflow="visible"/></clipPath><path class="st0" d="M19.1 9.4v.4c0 1-.2 2.1-.6 3.1-.4 1.1-1 2-1.7 2.9-.7.8-1.7 1.5-2.8 2.1-1.1.5-2.4.8-3.8.8-.9 0-1.7-.1-2.5-.4-.8-.2-1.6-.6-2.2-1h.8c.7 0 1.4-.1 2.1-.4.7-.2 1.3-.6 1.8-1-.7 0-1.3-.2-1.8-.6s-.9-.9-1.1-1.5h1s.3 0 .4-.1c-.7-.2-1.3-.5-1.8-1.1s-.7-1.2-.7-2c.2.1.4.2.7.3s.5.1.7.1c-.4-.3-.8-.6-1-1.1-.3-.5-.4-1-.4-1.5 0-.3 0-.6.1-.8l.4-.8c.4.5.8.9 1.3 1.3s1 .7 1.5 1 1.1.5 1.7.7 1.2.3 1.9.3c0-.1-.1-.2-.1-.4v-.4c0-.4.1-.8.2-1.2.2-.4.4-.7.7-1s.6-.5 1-.7.8-.2 1.2-.2c.5 0 .9.1 1.3.3s.7.4 1 .7c.4-.1.7-.2 1-.3s.7-.3 1-.5c-.1.4-.3.7-.5 1s-.5.6-.8.8c.3 0 .6-.1.9-.2l.9-.3c-.2.3-.4.6-.7.9-.5.3-.7.5-1.1.8z"/></svg>