<svg id="Layer_1" xmlns="http://www.w3.org/2000/svg" viewBox="0 0 325 66"><style>.st0{ fill:#000000; }</style><path class="st0" d="M80 40.9v6.4h4V35.4h-5.6c-1.8 0-3.2-1.5-3.2-3.1v-14c0-1.8 1.3-3.2 3.2-3.2h7.2c1.8 0 3.2 1.3 3.2 3.1v7.7h-4.7v-6.1h-4v10.7h5.6c1.8 0 3.2 1.5 3.2 3.2v15.1c0 1.7-1.4 3.1-3.2 3.1h-7.2c-1.7 0-3.2-1.4-3.2-3.1v-8H80v.1zM96.9 18.4c0-1.7 1.5-3.2 3.2-3.2h7.2c1.8 0 3.2 1.5 3.2 3.2V49c0 1.7-1.4 3.1-3.2 3.1h-7.2c-1.7 0-3.2-1.4-3.2-3.1V18.4zm8.7 1.5h-4v27.4h4V19.9zM123.3 15.2v32.1h4V15.2h4.7V49c0 1.7-1.4 3.1-3.2 3.1h-7.2c-1.7 0-3.2-1.4-3.2-3.1V15.2h4.9zM142.8 19.9h-4.2v-4.7h13.2v4.7h-4.2V52h-4.7V19.9h-.1zM158.4 15.2h4.7v17h4v-17h4.7v36.9h-4.7v-15h-4v15.1h-4.7v-37zM192.2 52.1H180V15.2h11.9v4.7h-7.1v10.2h5v4.7h-5v12.5h7.5l-.1 4.8zM208.6 36.4h-4V52h-4.7V15.2h9.7c1.8 0 3.2 1.5 3.2 3.2v12.9c0 1.3-.7 2.3-1.6 2.6 1.4.3 2.2 1.8 2.2 3.1v15.2h-4.7l-.1-15.8zm-4-4.6h3.4V20.1h-3.4v11.7zM227 15.2l4.5 18.3V15.2h4.7v36.9h-5.6l-4.7-19.8v19.8h-4.7V15.3l5.8-.1zM262.3 36.4h-4V52h-4.8V15.2h9.7c1.8 0 3.2 1.5 3.2 3.2v12.9c0 1.3-.7 2.3-1.6 2.6 1.4.3 2.2 1.8 2.2 3.1v15.2h-4.7V36.4zm-4-4.6h3.4V20.1h-3.4v11.7zM287.2 52.1H275V15.2h11.9v4.7h-7.1v10.2h5v4.7h-5v12.5h7.5l-.1 4.8zM307 52.1h-12.2V15.2h11.9v4.7h-7.2v10.2h5v4.7h-5v12.5h7.5v4.8zM314.7 15.2h4.7v32.1h5.6V52h-10.3V15.2z"/><g><path class="st0" d="M15.7 16.9v9.3H4.9v-21h26.4v9.3h4.8V.4H0V31h31.2v8.5H20.6v-6h-4.8v10.9h38.3V17.1H15.7v-.2zm33.5 22.7H36.1V26.2H20.6v-4.4h28.6v17.8z"/><path class="st0" d="M31.2 52.1H20.6v-5.3h-4.9v5.3H4.9V39.6H0v17.3h36.1V46.8h-4.9zM15.7 59.2h4.8v6.3h-4.8zM43.2 46.8h-5.6l10.8 18.8H54zM56.4 27.1v8l6.8 1.2V25.9c.1 0-7.2 1.2-6.8 1.2z"/></g></svg>