<svg xmlns="http://www.w3.org/2000/svg" viewBox="0 0 172 172"><path d="M140.6 117.1c-.1-.3.2-.7.3-1.1.1 0 .2.1.3.1 1.7-3.1 3.1-6.3 4.3-9.7-5 5.1-8.6 11.5-10.2 18.6 2-2.6 3.7-5.1 5.3-7.9zM25.4 114.4c-1.3-.8-2.6-1.6-3.8-2.5 3.6 9 9.1 17 15.9 23.7.1-.9.1-1.8.1-2.6v-.9c-5-5.2-9.1-11-12.2-17.7zM124 41.3l9.4-.5-6.2-5"/><path d="M86 .7h-1.9c.1.3.3.6.2.8-.1.3-.6.3-1 .5-.1-.3-.4-.8-.3-1 .1-.1.2-.2.4-.3-18.8.6-36.1 7.2-49.9 18 0 .1.1.2.1.3-.3.2-.5.5-.8.7-.1-.1-.1-.2-.2-.3-2.1 1.6-4 3.4-5.9 5.2l.6.6c-.1.1-.2.3-.3.4-.2-.2-.5-.4-.6-.6v-.1c-1.6 1.6-3.2 3.3-4.7 5 .1 0 .2.1.3.1-.2.4-.3.7-.5 1.1-.2-.1-.5-.2-.7-.3-1.4 1.7-2.8 3.4-4 5.1.1.1.2.1.3.1-.4.2-.6.5-.9.7C6.4 50.6.6 67.6.6 85.9c0 47.1 38.3 85.4 85.4 85.4 29.7 0 55.8-15.2 71.1-38.2 0-.1-.1-.2-.1-.3 0-.2.3-.5.7-.7 8.6-13.3 13.6-29.2 13.6-46.2C171.4 39 133.1.7 86 .7zm55 23.9c.2.2.4.4.7.6-.1.1-.2.3-.3.4-.2-.2-.5-.4-.6-.6-.1 0 .1-.2.2-.4zM95 1.9c.1-.1.4-.3.5-.3.2.2.4.5.6.8-.3 0-.6.1-1 0-.1 0-.2-.4-.1-.5zm-21.9 0c-.1.2-.2.4-.3.8-.1-.3-.1-.5-.2-.6.1-.1.3-.2.5-.2zm-5.8 5.2c0 .3.1.6 0 .9 0 0-.3 0-.5.1 0-.3-.1-.6 0-.9 0-.1.3-.1.5-.1zm-18 5.8l.6 1.2c-.4.1-.8.4-1 .3s-.3-.6-.5-1c.3-.1.6-.3.9-.5zM9.1 74.1c.3-.1.8.3 1.4.7-.2-1.5-.3-3-.3-4.5 0-5.5 1.1-10.7 3-15.5l1.2-2.7C21.1 38.6 35 29.4 51 29.4c13.6 0 25.6 6.6 33.1 16.8.3.1 1.1.9 1 1.1 0 .1-.1.1-.1.2 4.4 6.5 6.9 14.3 6.9 22.7 0 22.6-18.3 40.9-40.9 40.9-20.6 0-37.7-15.3-40.5-35.2-.6.5-1.1.8-1.6.9-.3.1-1.2-.8-1.2-1.1.3-.6.8-1.5 1.4-1.6zm58-54.4c-.2-.2-.4-.5-.6-.7.1-.1.4-.3.4-.3.2.2.4.5.6.7-.1.1-.3.2-.4.3zm.8 11.1c-.1.1-.2.3-.3.4-.2-.1-.4-.1-.5-.2s0-.3.1-.5c.2.1.4.2.7.3zm4.3-17.2l.1-.5.5.3-.6.2zm11.1.5c-.2-.3-.4-.6-.5-.9 0 0 .3-.3.4-.3.3.1.6.3.8.5-.1.3-.4.5-.7.7zm1 10.4c.1.2.3.4.3.5-.2.2-.5.4-.8.6-.1-.2-.2-.3-.3-.5.3-.2.5-.4.8-.6zm5.1 4.7c.4.1.8.5 1.4 1-.7.4-1.1.7-1.5 1-.3-.5-.6-.9-.7-1.4-.1-.2.6-.7.8-.6zm-.7-10c.1-.5.6-1 1.1-1.2.3-.1.8.5 1.4 1-.6.6-1 1.2-1.5 1.3-.3 0-1.1-.8-1-1.1zm1.8 33.9c.1.5-.2 1-.4 1.8-.7-.6-1.4-.9-1.4-1.2 0-.5.6-.9 1-1.3 0 0 .8.4.8.7zm4.6-28.4c.2.1.3.2.5.3-.2.3-.4.5-.7.8 0 0-.3-.2-.5-.3.3-.3.5-.5.7-.8zm-.4-10.6c.2-.5.6-1 .9-1.3.1-.1.6.4 1.1.8-.4.4-.7.9-1.2 1.2-.1 0-.8-.6-.8-.7zm.2 33.2c.3-.1.7.2 1.1.4-.2.3-.3.7-.5 1-.4-.2-.7-.3-1.1-.5.2-.3.3-.9.5-.9zm.6 80.1c.1-.2.1-.4.2-.5.1-.1.3.1.4.1-.1.2-.1.3-.2.5-.2.1-.3-.1-.4-.1zm.1 23.2c-.1.1-.3.1-.4.1 0-.1-.1-.4-.1-.4.1-.1.3-.1.4-.1.1.2.2.4.1.4zm-.1-45.4l.3-.5.2.5h-.5zm.2-45c-.3-.2-.9-.2-1-.5s.2-.8.4-1c.2-.1.7.2 1 .4-.1.4-.2.8-.4 1.1zm-.8 10c.3-.1.7.2 1 .4-.2.3-.2.9-.5.9-.3.1-.7-.2-1-.4.1-.3.2-.9.5-.9zm.1 48.4V132h-5.7v-13.4H95zm0 16.3v13.5h-5.7v-13.5H95zm-3.8-23.3l-4.3-1.5c-.6-.2-1.2-.2-1.8 0l-4.3 1.6c-1.5.6-3.3-.4-2.6-1.4l6-9c.6-.9 2.7-.9 3.4 0l6.2 8.9c.7 1-1 2-2.6 1.4zm-13 20.3v-13.4h5.7v13.4h-5.7zm5.7 3v13.5h-5.7v-13.5h5.7zm-16.8-3v-13.4h5.7v13.4h-5.7zm5.7 3v13.5h-5.7v-13.5h5.7zm-16.5-3v-10.6h5.1v10.6h-5.1zm5.1 3v10.7h-5.1v-10.7h5.1zM4 69.6c.2.2.4.5.6.8-.3.1-.7.2-1 .4 0-.3-.1-.7-.1-1 0-.1.4-.2.5-.2zm.7 24.3c-.1.2-.6.3-.9.4-.1-.3-.4-.7-.3-1 .1-.2.6-.3.9-.4.2.3.4.8.3 1zm142.4 51.3c-.2-.3-.4-.5-.6-.8 0-.1.3-.4.4-.4.3.1.6.3 1 .6-.3.3-.5.5-.8.6zm11.5-20.3c-.7-.6-1.8-1.2-1.9-1.9-.2-1.3.6-2.4 2.1-2.4.6 0 1.2.7 2.2 1.4-1 1.2-1.7 2.1-2.4 2.9zm5.5-19.2c-.4-.1-.7-.3-1.1-.4.2-.3.3-.9.5-.9.3-.1.7.2 1.1.3-.2.4-.4.7-.5 1zM86 165.3c-43.7 0-79.2-35.5-79.2-79.2v-1.7c4.7 14.8 16.7 26.4 31.7 30.6 2.6 5.5 4 11.6 4 18.1 0 2.4-.2 4.7-.6 6.9-.6 3.4.9 6.8 3.7 8.6 11.6 7.5 25.4 11.9 40.3 11.9 14.8 0 28.7-4.4 40.3-11.9 2.8-1.8 4.2-5.2 3.7-8.5-.1.1-.2.1-.3.1-.5-.1-.9-.5-1.7-.9.8-.5 1.2-1 1.7-1h.1c-.2-1.7-.3-3.5-.3-5.2 0-1.5.1-3 .2-4.5-.2.1-.3.1-.5.1-.4 0-.7-.7-1-1.1.4-.3.9-.9 1.3-.9.1 0 .3.1.4.2.8-5.4 2.6-10.5 5.3-15.1-.3-.4-.8-.9-.8-1.3 0-.3.7-.5 1.1-.8.1.3.3.5.4.8 2.8-4.4 6.3-8.2 10.4-11.3 0-.1-.1-.2-.1-.2.3-.2.6-.4.8-.6 0 .1.1.1.1.2 1.8-1.3 3.7-2.5 5.7-3.5-.6-.5-1-.8-1.4-1.1.3-.4.6-.9 1.1-1.1.2-.1.9.3.9.5 0 .5-.2.9-.4 1.6.7-.3 1.4-.7 2.1-1 3.1-1.3 5.2-4.3 5.2-7.7v-.1c0-21.9-9.5-41.6-24.5-55.2 0 .1-.1.1-.1.2-.1-.1-.3-.2-.4-.3l.2-.2c-1.1-1-2.2-1.9-3.4-2.9l-2.7 4.6 9.3 8.7 3.2 3-4.2-.2-12.6-.8c-.1.3-.3.6-.5 1l7.3 15.3-9.4-16.1-9.8 13 8.9-15.9-.1.1 3.1-6.9-3.9-3.2 3-3.4 2.7 2.5 2-4.5c-2.3-1.6-4.6-3-7-4.3l-17.9 11.4 11 8.1 1.2.8-1.1.7-18.6 11.4L112.2 41l-12.8-7.6-2-1.2 2-1.6h.1c0-.2.2-.6.4-.9.1.1.3.1.5.2l15-12.1c-9-3.9-18.9-6-29.3-6-15.3 0-29.4 4.6-41.2 12.5-4.3.6-8.3 1.7-12.1 3.4 3.1-2.9 6.5-5.5 10.1-7.8-.1-.1-.2-.3-.1-.3.3-.6.8-1.4 1.4-1.6.2-.1.5.2.9.5 12-7.3 26.1-11.6 41.1-11.6 1.4 0 2.8 0 4.1.1.1 0 .2-.1.3-.1 0 .1 0 .1.1.2 3.3.2 6.5.6 9.6 1.1V8c.1-.5.4-1 .7-1.8.5.6 1.2 1 1.1 1.3 0 .3-.3.5-.6.7 36.4 7.2 63.9 39.3 63.9 77.7-.2 43.9-35.7 79.4-79.4 79.4zm15.8-111.7c-.3.2-.6.3-.9.4 0-.3-.1-.7-.1-1 .3 0 .6 0 .9.1.1 0 .2.5.1.5zm.1 10.4c.2.1.3.6.4 1-.3.1-.8.4-1 .3-.3-.2-.3-.6-.5-1 .4-.1.9-.4 1.1-.3zm9.8-1.2c8.4 0 15.3 6.8 15.3 15.3 0 3.2-1 6.1-2.6 8.6.5.2.9.9 1.5 1.6-.9.5-1.5 1-1.8.9-.4-.2-.7-.5-1.1-.9-2.8 3.1-6.8 5.1-11.4 5.1-8.4 0-15.3-6.8-15.3-15.3s7-15.3 15.4-15.3zm-4.7-4.1c.1.3.5.7.4 1s-.6.4-.9.5c-.2-.3-.5-.5-.7-.8.4-.2.8-.5 1.2-.7zm-.8-10.9c.3 0 .6 0 .9.1.1 0 .1.5.1.5l-.9.3c0-.2-.1-.5-.1-.9zm11.2 12.3c0-.6.8-1.5 1.3-1.6s1.5.7 1.6 1.2-.6 1.3-1.2 2.3c-.8-.9-1.7-1.4-1.7-1.9zm6.2 4.6c0-.1.3-.4.4-.4.3.1.6.3.8.5l-.7.7c-.1-.3-.3-.6-.5-.8zm-.1 56.2c.6.4 1.8.9 1.8 1.3 0 .9-.6 1.8-1.2 3.2-1-1-2-1.6-1.9-2.1 0-.9.8-1.6 1.3-2.4zm-.2-10.1c.2-.3.4-.6.5-.8.2.3.5.5.6.8 0 .1-.2.4-.3.4-.2-.1-.5-.3-.8-.4zm1-8.6c-.9-.9-1.9-1.6-1.8-2 .3-.8.9-1.7 1.7-2.1.3-.2 1.8.9 1.7 1.3-.1.8-.8 1.5-1.6 2.8zm-12.5 32.7h5.1v10.7h-5.1v-10.7zm-.2-24.5c0-.4.5-.9.8-1.3.4.4 1.1.7 1.2 1.1.1.4-.4.9-.8 1.6-.5-.6-1.1-1-1.2-1.4zm.4 22.8c.4-.2.8-.4 1.2-.7.1.3.4.7.3 1-.1.3-.6.3-.9.5-.2-.2-.4-.6-.6-.8zm-.2-1.3v-10.6h.7c.1-.1.2-.3.4-.4 0 0 .3.2.5.4h3.5v5.4c.3-.4.7-.8 1.1-1.3.7.8 1.5 1.3 1.5 1.9 0 .6-.7 1.2-1 1.9-.5-.4-1.1-.8-1.6-1.2v3.9h-5.1zm6.6-16.7c.4.4 1.1.7 1.1 1.1 0 .4-.5.9-.9 1.5-.6-.4-1-.7-1.5-1.1.4-.5.9-1 1.3-1.5zm-1.2-21.4c.2-.6.9-1 1.4-1.4.3.4.9.9.9 1.3s-.6.9-1.5 2c-.4-.9-1-1.6-.8-1.9zm.4 45.1c0-.4.7-.8 1-1.3.4.4.8.7 1.4 1.3-.6.5-1 1.1-1.4 1.1-.4-.1-1.1-.8-1-1.1zm.5 11.9c-.1.2-.1.4-.3.4-.1.1-.3-.1-.5-.1v-.5c.3.1.6.1.8.2zm-12-15.9v13.5h-5.7v-13.5h5.7zm-5.4-1c.2-.3.3-.9.5-1 .3-.1.7.2 1 .4-.2.3-.2.9-.5 1-.3-.1-.7-.4-1-.4zm-.3-2v-13.4h5.7v13.4h-5.7zm.9-20.8l.5-.2v.5l-.5-.3zm4.5-17.9c.4-.1.8-.4 1-.3.2.1.3.6.4.9-.3.1-.7.2-1 .3-.1-.2-.3-.5-.4-.9zm23.7.6c-.3-.2-.5-.4-.8-.7l1.2-.9c.2.3.5.7.5 1-.1.2-.6.4-.9.6zm.7 11.1c-.2.3-.4.5-.6.8-.2-.2-.4-.5-.6-.7.3-.2.6-.4.9-.5 0 .1.3.4.3.4zm-.3 9.9c.3-.1 1.2.7 1.2 1.1 0 .6-.5 1.3-1 2.4-.9-1-1.4-1.6-1.9-2.2.5-.4 1-1.2 1.7-1.3zm0-43.1c-.4 0-.8-.7-1.1-1 .4-.4.8-1 1.2-1.1s.9.6 1.5 1c-.7.5-1.2 1.1-1.6 1.1zm-.6 8.5c.6.4 1.3 1 1.3 1.6 0 .5-.9 1-1.9 2-.4-1.3-.8-2-.7-2.6.1-.4 1.1-1.1 1.3-1zm6.7-16c.2.3.5.7.5 1 0 .2-.5.4-.8.6-.3-.2-.5-.4-.8-.7.3-.3.7-.5 1.1-.9zm-1.1-10.6l.3-.4.2.5-.5-.1zm1.6 22.3c.1.5-.1 1-.3 1.6-.6-.2-1-.3-1.4-.4.2-.5.3-1.1.6-1.5.1 0 1.1.3 1.1.3zm-1.4 11.5c.5.2.9.6 1.4.9-.3.3-.5.6-1 1.1-.4-.4-.8-.7-1.1-1.1 0-.2.6-1.1.7-.9zm.2 10c.4.1.7.8.8 1.3 0 .2-.6.7-.8.7-.5-.2-.9-.6-1.6-1.1.7-.4 1.2-.9 1.6-.9zm5.7-37.2c-.3-.4-.5-.8-.8-1.2.3-.1.7-.4 1-.3.2.1.4.5.5.8l-.7.7zm1.5 10.9c-.5.4-.8.7-1.1 1-.3-.4-.7-.9-1-1.4 0-.1.7-.7.9-.7.4.2.8.7 1.2 1.1zm-1.9 10.1c.5 0 1 .2 3.3.8-1.7.6-2.3 1-2.8.9-.4-.1-.8-.6-1.2-.9.2-.3.5-.8.7-.8zm1.4 13.5c-.3-.2-.7-.3-1-.5.1-.4.3-.7.4-1.1.3.2.9.3 1 .5.1.3-.3.6-.4 1.1zm4.6-29.3c-.4-.3-.8-.8-1.1-1.2.5-.4.8-.6 1.1-.8.3.4.7.8.8 1.3.1.2-.7.7-.8.7zm1.7 11.5c-.1.4-1 .8-2.2 1.6-.2-1.3-.5-2-.3-2.6.1-.4 1.2-.8 1.4-.7.6.2 1.2 1 1.1 1.7zm-2.1 9.5c.4-.1.8.5 1.5 1-.6.5-1 1.1-1.5 1.1-.4 0-.8-.7-1.1-1 .3-.3.7-1.1 1.1-1.1zm11.7-10.2c.3 0 .7 0 1 .1.1 0 .2.5.1.5-.3.1-.6.2-1 .3 0-.3 0-.7-.1-.9zm-27-28.2c-.1.3-.6.5-.8.7-.3-.3-.6-.5-.9-.8l1.2-.9c.2.3.5.7.5 1zm-12.7-22c-.5-.7-.8-1.1-1.1-1.6.5-.3.9-.7 1.4-.8.2 0 .8.6.7.8-.1.5-.6.9-1 1.6zm1.1 10.6c-.5.3-.9.6-1.4.7-.2 0-.7-.8-.6-.9.3-.4.8-.7 1.3-1.1.2.4.4.8.7 1.3zm-6.3-5.5l-.5.2.1-.5.4.3zm-1.8-12.6c.5-.3 1-.4 1.5-.6.1.4.4.9.3 1.1-.4.4-.9.6-1.4.9-.2-.7-.5-1.4-.4-1.4zm36.5 11.7l.4.3c-.2.3-.4.5-.6.8-.1-.1-.3-.2-.4-.3.1-.3.3-.6.6-.8z"/><path d="M34.7 118.7c-1-.4-2.1-.7-3.1-1.2 1.5 2.6 3.2 5.1 5 7.4-.4-2.1-1.1-4.1-1.9-6.2zM157.1 99.1c-.1-.1-.3-.2-.7-.2-.1 0-.3 0-.5.1s-.5.2-.7.4c-.3 1.8-.8 3.6-1.2 5.3.1 0 .1.1.2.1-.1.1-.2.1-.3.1-3.4 12.5-10.2 23.5-19.3 32.2 0 .3 0 .6.1.9.1.6.5.8.7.8.1.1.7.2 1.1-.2 6.5-6.3 11.7-13.5 15.4-21.5-.2-.2-.4-.5-.6-.8-.1-.1.5-.8.7-.8s.3.1.5.1c2.2-4.9 3.8-10.1 4.9-15.5.2-.7-.2-.9-.3-1zM16.5 107.9c3.6 11.6 10.1 22 19 30.6.4.4 1 .3 1.1.2.2-.1.6-.3.7-.8 0-.3.1-.6.1-.9-7.6-7.3-13.6-16.2-17.4-26.2-1.2-.9-2.4-1.9-3.5-2.9zM145.4 110.9c.2-.6.8-1 1.3-1.6.2.2.4.5.6.7.9-2.4 1.8-4.9 2.4-7.4-1 .7-1.9 1.5-2.8 2.3-2.5 8.2-6.7 15.6-12.1 22.1-.2 1.2-.3 2.4-.4 3.6 5-5.4 9-11.6 12-18.5-.4-.4-1-.9-1-1.2zM50.5 105.8c19.6 0 35.5-15.9 35.5-35.5 0-3.8-.6-7.5-1.7-10.9-.3.2-.5.4-.7.4-.4 0-.7-.6-1-1-.1-.1.5-.8.7-.7.2 0 .4.1.6.2-5-13.6-18-23.3-33.3-23.3C31 35 15.1 50.8 15.1 70.4c-.1 19.5 15.8 35.4 35.4 35.4zm33.6-35.6c.2.2.4.5.6.7 0 .1-.2.4-.3.4-.3-.1-.6-.2-.9-.4.2-.3.4-.5.6-.7zM26.9 93.9l.2-.5.2.5h-.4zm16.8 6.3c-.1.1-.9-.6-.9-.6.2-.5.6-1 .9-1.4.3.2.6.5 1.1.9-.3.3-.6.8-1.1 1.1zm34.6-47.5c.2-.1.6.2.9.4-.2.3-.3.6-.5 1-.3-.1-.6-.3-1-.4.3-.4.3-.8.6-1zm-5.6-6.2c.1 0 .7.6.7.8-.1.5-.5.8-1 1.5-.5-.7-.8-1.1-1.1-1.6.5-.2.9-.6 1.4-.7zm-6.1-5.1c0 .3-.1.6-.1.9-.1-.2-.2-.3-.3-.5l.4-.4zm-23.3 1.4c-.2-.3-.3-.5-.2-.7.2-.4.9-.6 1.4-.7.2 0 .7.7.6.9 0 0 0 .1-.1.1 1.7-.3 3.5-.5 5.4-.5 13.7 0 25.1 9.7 27.9 22.6.1-.1.1-.1.2-.1.3.1.6.3.9.5-.2.2-.4.4-.7.6-.1-.1-.2-.2-.2-.3.3 1.7.5 3.4.5 5.1C79 86 66.3 98.8 50.5 98.8 34.8 98.8 22 86.1 22 70.3c0-13.2 9.1-24.3 21.3-27.5zM134.5 134.6v1.1l.6-.6c-.2-.2-.4-.3-.6-.5z"/><path d="M134.9 132.4c.6 0 1.1.4 2 .8 7.2-7.8 12.7-17.2 15.7-27.7-.1 0-.2.1-.4.1s-.7-.5-.7-.8.5-.9.7-.8c.2 0 .5.1.8.2.4-1.4.7-2.8 1-4.2l-3 1.8c-2.8 11.6-8.6 22-16.6 30.4v.5c.2-.3.4-.3.5-.3zM50.5 95.8C64.6 95.8 76 84.4 76 70.2S64.6 44.8 50.5 44.8 25 56.1 25 70.2s11.4 25.6 25.5 25.6zm22.4-36.4l.1.4h-.4l.3-.4zm-1.1 10.7c.3-.1.7.2 1.1.4-.2.3-.3.7-.5 1-.4-.2-.7-.3-1.1-.5.2-.3.3-.9.5-.9zM38.5 83.4c-.7-.7-1.1-1.1-1.4-1.5-.1-.1.5-.7.8-.8s1.1.2 1.1.3c-.1.5-.3 1-.5 2zm11.1 10.4c0-.2 0-.4.1-.5s.3 0 .5-.1c.1.1.1.3.2.4-.3.1-.5.1-.8.2zm17.2-40.1l.5.3-.5.2v-.5zm-5.4 16.9c0 .2 0 .4.1.5-.3 0-.6.1-.9.1 0 0 0-.3-.1-.5.3 0 .6 0 .9-.1zm-1.3 7c1.3 0 2.4 1.1 2.4 2.4s-1.1 2.4-2.4 2.4-2.4-1.1-2.4-2.4 1.1-2.4 2.4-2.4zM55 64c.1 0 .2.1.2.2 1.8 1.4 3 3.6 3 6.1 0 4.3-3.5 7.8-7.8 7.8s-7.8-3.5-7.8-7.8 3.5-7.8 7.8-7.8c1.8.1 3.3.6 4.6 1.5zm-5.2-17.2c.2.2.4.3.6.5-.1.1-.3.2-.4.4-.1-.1-.2-.3-.3-.4 0-.2.1-.3.1-.5zm-.2 12c0 .2.1.3.1.5-.2-.1-.4-.1-.8-.3.4-.1.5-.2.7-.2zm-10.7-5c4.5-3.1 8.3-3.3 8.3-3.3v8.2s-1.6.1-3.8 1.8c-2.5 1.8-3.3 3.6-3.3 3.6l-7.6-2.8c0-.1 1.6-4.1 6.4-7.5zm-8.2 12.3c.2-1.8 1.1-3.1 1.1-3.1l7.4 2.9s-.4.7-.7 1.8c-.2 1-.2 1.7-.2 1.7h-8c.1 0 .1-1.2.4-3.3zM37.1 127.1c-2.6-3.1-5-6.5-7-10.1-1.1-.5-2.1-1-3.1-1.5 2.8 5.6 6.3 10.7 10.5 15.3-.1-1.4-.2-2.6-.4-3.7z"/></svg>